<svg version="1.2" xmlns="http://www.w3.org/2000/svg" viewBox="0 0 192 16" width="192" height="16">
	<title>sirusman_death</title>
	<style>
		.s0 { fill: #d47530 } 
		.s1 { fill: #0e4f5a } 
	</style>
	<path id="orange_part" class="s0" d="m152.5 8h-2.5v3.2l1.5 3.8 1.5-5.5z"/>
	<path id="blue_part" class="s1" d="m151.5 15v-7h1.6v3.2z"/>
	<path id="orange_part" class="s0" d="m136.7 8.3l-2.5-1-1.2 3.3 0.2 4.4 3.5-2.7z"/>
	<path id="blue_part" class="s1" d="m137.4 15l-2.1-1.6v-5.7l1.1-0.4 1.2 3.3z"/>
	<path id="Vorm 2" class="s0" d="m137 20"/>
	<path id="orange_part" class="s0" d="m121 9.8l-2.2-1.8-2.3 2.8-1.5 4.5 4.6-1.4z"/>
	<path id="blue_part" class="s1" d="m123.7 15.3l-4.4-1.4 0.1-5.4 0.5-0.5 2.4 2.8z"/>
	<path id="orange_part" class="s0" d="m105.3 10.6l-1.3-2.2-0.5-0.4-3.3 1.9-3.2 4 5.3 0.3z"/>
	<path id="blue_part" class="s1" d="m109.9 13.9l-5.2 0.3-1.2-1.4v-4.8l3.2 1.9z"/>
	<path id="orange_part" class="s0" d="m89.9 11.1l-0.5-2.7-1.9-0.4-2.6 0.5-4.9 3 5.4 2.2z"/>
	<path id="blue_part" class="s1" d="m95.1 11.5l-5.3 2.2-2.3-1.2v-4.5l2.7 0.5z"/>
	<path id="orange_part" class="s0" d="m73.5 12.3l0.6-3.5-4.4-0.8-5.7 1.2 4.4 4z"/>
	<path id="blue_part" class="s1" d="m78.9 9.2l-4.3 4-3.2-0.6 0.1-4.3 1.8-0.3z"/>
	<path id="orange_part" class="s0" d="m39.2 13.4l3.6-3.1-3.9-4.6-6.9-3.7 1 7.9z"/>
	<path id="blue_part" class="s1" d="m46.7 2l-1 7.8-6.1 3.6-0.3-0.2v-7l0.5-0.5z"/>
	<path id="orange_part" class="s0" d="m57.2 12.4l1.7-2.9-4.4-2.6-6.5-0.9 3.1 5.9 4.6 0.8z"/>
	<path id="blue_part" class="s1" d="m63.1 6l-3 5.9-4.4 0.8-0.1-5.1 1.1-0.7z"/>
	<path id="orange_part" class="s0" d="m21.2 13.1l4.1-1.5-1.9-5.3-4.8-5.3-1.6 7.1z"/>
	<path id="blue_part" class="s1" d="m28.2 1l1.6 7.1-4.2 5-2.2-0.8v-6z"/>
	<path id="orange_part" class="s0" d="m3.2 13h4.3v-5.5l-2.7-6.5-3.8 6z"/>
	<path id="blue_part" class="s1" d="m10.1 1l3.9 6-2.2 6h-4.3v-5.5z"/>
	<path id="Vorm 3" class="s0" d="m163 7h1v1h-1z"/>
	<path id="Vorm 4" class="s0" d="m166 7v1h1v-1z"/>
	<path id="Vorm 5" class="s0" d="m171 8v1h1v-1z"/>
	<path id="Vorm 6" class="s0" d="m171 11v1h1v-1z"/>
	<path id="Vorm 7" class="s0" d="m168 14v1h1v-1z"/>
	<path id="Vorm 8" class="s0" d="m163 13v1h1v-1z"/>
	<path id="Vorm 9" class="s0" d="m163 10v1h1v-1z"/>
	<path id="Vorm 10" class="s0" d="m171 14v1h1v-1z"/>
	<path id="Vorm 11" class="s0" d="m165 15v1h1v-1z"/>
	<path id="Vorm 12" class="s0" d="m169 6v1h1v-1z"/>
	<path id="Vorm 13" class="s1" d="m165 6v1h1v-1z"/>
	<path id="Vorm 14" class="s1" d="m164 8v1h1v-1z"/>
	<path id="Vorm 15" class="s1" d="m162 10v1h1v-1z"/>
	<path id="Vorm 16" class="s1" d="m164 12v1h1v-1z"/>
	<path id="Vorm 17" class="s1" d="m166 14v1h1v-1z"/>
	<path id="Vorm 18" class="s1" d="m169 15v1h1v-1z"/>
	<path id="Vorm 19" class="s1" d="m170 13v1h1v-1z"/>
	<path id="Vorm 20" class="s1" d="m172 11v1h1v-1z"/>
	<path id="Vorm 21" class="s1" d="m170 9v1h1v-1z"/>
	<path id="Vorm 22" class="s1" d="m168 7v1h1v-1z"/>
</svg>