<svg version="1.2" xmlns="http://www.w3.org/2000/svg" viewBox="0 0 64 16" width="64" height="16">
	<title>sirusman_right</title>
	<style>
		.s0 { fill: #0e4f5a } 
		.s1 { fill: #d47530 } 
	</style>
	<path id="blue_part" class="s0" d="m14 8l-4 6.1h-6.6l-2.4-6.1z"/>
	<path id="orange_part" class="s1" d="m3.4 2l-2.4 6h13l-4.1-6z"/>
	<path id="blue_part" class="s0" d="m28 10.5l-5.5 3.5-5.5-2v-3.9h5.1z"/>
	<path id="orange_part" class="s1" d="m17 4.1v4h5.1l5.9-2.5-5.5-3.5z"/>
	<path id="blue_part copy" class="s0" d="m60.1 10.4l-5.5 3.6-5.6-2v-4h5.1z"/>
	<path id="orange_part copy" class="s1" d="m49 4.1v3.9h5.1l6-2.4-5.6-3.5z"/>
	<path id="blue_part" class="s0" d="m43 14h-6.7l-3.3-6h6z"/>
	<path id="orange_part" class="s1" d="m39 8l4.1-6h-6.8l-3.3 6z"/>
</svg>